<svg xmlns="http://www.w3.org/2000/svg" xmlns:xlink="http://www.w3.org/1999/xlink" width="500" zoomAndPan="magnify" viewBox="0 0 375 374.999991" height="500" preserveAspectRatio="xMidYMid meet" version="1.0"><defs><g/><clipPath id="3910c27999"><path d="M 291.128906 93.105469 L 362.824219 93.105469 L 362.824219 274.3125 L 291.128906 274.3125 Z M 291.128906 93.105469 " clip-rule="nonzero"/></clipPath></defs><g fill="#00050f" fill-opacity="1"><g transform="translate(16.03891, 269.943928)"><g><path d="M 49.296875 1.625 C 33.398438 1.625 21.921875 -2.3125 14.859375 -10.1875 C 7.804688 -18.0625 4.28125 -30.757812 4.28125 -48.28125 L 4.28125 -65.390625 L 38.703125 -65.390625 L 38.703125 -43.59375 C 38.703125 -34.894531 41.484375 -30.546875 47.046875 -30.546875 C 50.171875 -30.546875 52.34375 -31.460938 53.5625 -33.296875 C 54.789062 -35.128906 55.40625 -38.222656 55.40625 -42.578125 C 55.40625 -48.273438 54.722656 -52.988281 53.359375 -56.71875 C 52.003906 -60.457031 50.273438 -63.582031 48.171875 -66.09375 C 46.066406 -68.601562 42.300781 -72.507812 36.875 -77.8125 L 21.796875 -92.875 C 10.117188 -104.28125 4.28125 -116.910156 4.28125 -130.765625 C 4.28125 -145.703125 7.707031 -157.070312 14.5625 -164.875 C 21.414062 -172.6875 31.429688 -176.59375 44.609375 -176.59375 C 60.359375 -176.59375 71.695312 -172.414062 78.625 -164.0625 C 85.550781 -155.71875 89.015625 -142.648438 89.015625 -124.859375 L 53.359375 -124.859375 L 53.15625 -136.875 C 53.15625 -139.1875 52.507812 -141.019531 51.21875 -142.375 C 49.9375 -143.738281 48.140625 -144.421875 45.828125 -144.421875 C 43.109375 -144.421875 41.070312 -143.671875 39.71875 -142.171875 C 38.363281 -140.679688 37.6875 -138.644531 37.6875 -136.0625 C 37.6875 -130.363281 40.941406 -124.457031 47.453125 -118.34375 L 67.828125 -98.78125 C 72.578125 -94.164062 76.515625 -89.785156 79.640625 -85.640625 C 82.765625 -81.503906 85.273438 -76.617188 87.171875 -70.984375 C 89.078125 -65.347656 90.03125 -58.660156 90.03125 -50.921875 C 90.03125 -33.671875 86.875 -20.597656 80.5625 -11.703125 C 74.25 -2.816406 63.828125 1.625 49.296875 1.625 Z M 49.296875 1.625 "/></g></g></g><g fill="#00050f" fill-opacity="1"><g transform="translate(109.937857, 269.943928)"><g><path d="M 22.8125 0 L 22.8125 -141.359375 L 2.03125 -141.359375 L 2.03125 -174.96875 L 78.625 -174.96875 L 78.625 -141.359375 L 57.84375 -141.359375 L 57.84375 0 Z M 22.8125 0 "/></g></g></g><g fill="#00050f" fill-opacity="1"><g transform="translate(190.597222, 269.943928)"><g><path d="M 48.28125 1.625 C 33.882812 1.625 23.1875 -2.445312 16.1875 -10.59375 C 9.195312 -18.738281 5.703125 -30.820312 5.703125 -46.84375 L 5.703125 -174.96875 L 39.71875 -174.96875 L 39.71875 -48.28125 C 39.71875 -42.707031 40.257812 -38.359375 41.34375 -35.234375 C 42.4375 -32.109375 44.75 -30.546875 48.28125 -30.546875 C 51.800781 -30.546875 54.101562 -32.070312 55.1875 -35.125 C 56.28125 -38.1875 56.828125 -42.570312 56.828125 -48.28125 L 56.828125 -174.96875 L 90.84375 -174.96875 L 90.84375 -46.84375 C 90.84375 -30.820312 87.34375 -18.738281 80.34375 -10.59375 C 73.351562 -2.445312 62.664062 1.625 48.28125 1.625 Z M 48.28125 1.625 "/></g></g></g><g clip-path="url(#3910c27999)"><path fill="#00050f" d="M 291.128906 93.105469 L 362.824219 93.105469 L 362.824219 274.308594 L 291.128906 274.308594 Z M 291.128906 93.105469 " fill-opacity="1" fill-rule="nonzero"/></g><g fill="#f8f9f0" fill-opacity="1"><g transform="translate(351.214484, 257.647785)"><g><path d="M -48.078125 -2.125 L -48.078125 -16.90625 C -48.078125 -19.25 -47.546875 -21.066406 -46.484375 -22.359375 C -45.421875 -23.648438 -43.925781 -24.519531 -42 -24.96875 C -40.082031 -25.414062 -37.628906 -25.640625 -34.640625 -25.640625 C -31.921875 -25.640625 -29.796875 -25.28125 -28.265625 -24.5625 C -26.734375 -23.851562 -25.671875 -22.625 -25.078125 -20.875 C -24.773438 -22.332031 -24.046875 -23.382812 -22.890625 -24.03125 C -21.734375 -24.6875 -20.164062 -25.015625 -18.1875 -25.015625 L 0 -24.90625 L 0 -15.5 L -18.8125 -15.5 C -20.15625 -15.5 -21.007812 -15.238281 -21.375 -14.71875 C -21.75 -14.195312 -21.9375 -13.242188 -21.9375 -11.859375 L 0 -11.859375 L 0 -2.125 Z M -30.28125 -14.21875 C -30.28125 -15.5625 -31.734375 -16.234375 -34.640625 -16.234375 C -35.910156 -16.234375 -36.863281 -16.175781 -37.5 -16.0625 C -38.132812 -15.945312 -38.570312 -15.738281 -38.8125 -15.4375 C -39.050781 -15.144531 -39.171875 -14.71875 -39.171875 -14.15625 L -39.171875 -11.921875 L -30.28125 -11.921875 Z M -30.28125 -14.21875 "/></g></g></g><g fill="#f8f9f0" fill-opacity="1"><g transform="translate(351.214484, 230.957768)"><g><path d="M 0 -2.125 L -48.078125 -2.125 L -48.078125 -21.375 L -38.78125 -21.375 L -38.78125 -11.921875 L -29.4375 -11.921875 L -29.4375 -20.984375 L -20.375 -20.984375 L -20.375 -11.921875 L -9.34375 -11.921875 L -9.34375 -22 L 0 -22 Z M 0 -2.125 "/></g></g></g><g fill="#f8f9f0" fill-opacity="1"><g transform="translate(351.214484, 207.904757)"><g><path d="M 0 -2.125 L -48.078125 -2.125 L -48.078125 -12.03125 L -25.078125 -16.453125 L -48.078125 -16.453125 L -48.078125 -25.75 L 0 -25.75 L 0 -16.34375 L -24.0625 -11.53125 L 0 -11.53125 Z M 0 -2.125 "/></g></g></g><g fill="#f8f9f0" fill-opacity="1"><g transform="translate(351.214484, 180.039707)"><g><path d="M 0 -6.265625 L -38.84375 -6.265625 L -38.84375 -0.5625 L -48.078125 -0.5625 L -48.078125 -21.609375 L -38.84375 -21.609375 L -38.84375 -15.890625 L 0 -15.890625 Z M 0 -6.265625 "/></g></g></g><g fill="#f8f9f0" fill-opacity="1"><g transform="translate(351.214484, 157.881951)"><g><path d="M 0 -0.84375 L -48.078125 -5.484375 L -48.078125 -21.765625 L 0 -26.359375 L 0 -17.234375 L -7.78125 -16.5625 L -7.78125 -10.75 L 0 -10.1875 Z M -15.453125 -11.46875 L -15.453125 -15.84375 L -39.90625 -13.71875 L -39.90625 -13.265625 Z M -15.453125 -11.46875 "/></g></g></g><g fill="#f8f9f0" fill-opacity="1"><g transform="translate(351.214484, 130.744291)"><g><path d="M 0 -2.125 L -48.078125 -2.125 L -48.078125 -11.75 L -8.171875 -11.75 L -8.171875 -21.65625 L 0 -21.65625 Z M 0 -2.125 "/></g></g></g></svg>